<?xml version="1.0" encoding="UTF-8" standalone="no"?><!DOCTYPE svg PUBLIC "-//W3C//DTD SVG 1.1//EN" "http://www.w3.org/Graphics/SVG/1.1/DTD/svg11.dtd"><svg width="100%" height="100%" viewBox="0 0 1364 1357" version="1.1" xmlns="http://www.w3.org/2000/svg" xmlns:xlink="http://www.w3.org/1999/xlink" xml:space="preserve" xmlns:serif="http://www.serif.com/" style="fill-rule:evenodd;clip-rule:evenodd;stroke-miterlimit:10;"><path d="M930.848,320.282l119.404,119.403l225.322,-284.612l-71.23,-71.23l-273.496,236.439Z" style="fill:#6f4b32;fill-rule:nonzero;"/><path d="M968.008,494.652l-103.037,-102.934c-18.528,-18.528 -48.791,-17.396 -65.878,2.47l-498.2,567.269c-14.307,16.366 -263.922,327.638 -248.482,342.975c15.44,15.44 329.491,-231.292 345.961,-245.6l567.268,-498.2c19.763,-17.087 20.896,-47.452 2.368,-65.98Z" style="fill:#bad8df;fill-rule:nonzero;stroke:#bad8df;stroke-width:10.29px;"/><path d="M54.676,1305.05c32.012,-0.103 327.741,-232.425 343.696,-246.218l567.165,-498.097c19.866,-17.19 20.999,-47.555 2.471,-66.186l-51.364,-51.364l-861.968,861.865Z" style="fill:#83a6ad;fill-rule:nonzero;"/><path d="M1216.83,25.097c33.462,-33.463 87.797,-33.463 121.259,0c33.462,33.462 33.462,87.796 0,121.259c-33.462,33.462 -87.797,33.462 -121.259,0c-33.462,-33.463 -33.462,-87.797 0,-121.259Z" style="fill:#6f4b32;"/><path d="M916.129,334.795l-51.158,56.923l106.742,107.154l58.467,-58.569l-114.051,-105.508Z" style="fill:#6c959d;fill-rule:nonzero;"/><path d="M1147.42,489.711c-21.204,-21.205 -88.935,-89.758 -124.447,-125.785l0.103,-0.103c0,0 -4.22,-4.221 -11.323,-11.117c-6.999,-7.103 -11.116,-11.323 -11.116,-11.323l-0.103,0.103c-36.027,-35.512 -104.478,-103.243 -125.786,-124.447c-29.233,-29.233 -85.023,-32.218 -114.668,-2.367c-11.323,11.322 -15.955,29.233 -13.278,44.467c4.117,23.469 25.63,41.174 46.114,44.467c24.292,3.912 29.748,-6.896 53.834,-6.69c18.837,0.103 31.704,13.69 31.704,13.69l175.399,175.399c0,0 13.485,12.867 13.691,31.704c0.205,24.086 -10.603,29.542 -6.691,53.834c3.294,20.484 20.998,41.997 44.467,46.115c15.337,2.676 33.145,-1.956 44.468,-13.279c29.851,-29.748 26.865,-85.435 -2.368,-114.668Z" style="fill:#4c686d;fill-rule:nonzero;"/></svg>